Exo-LightItalic.ufo
<glyph name="three" format="2">
  <advance width="590"/>
  <unicode hex="0033"/>
  <note>
GF Latin Plus glyph
</note>
  <outline>
    <contour>
      <point x="301" y="-6" type="curve" smooth="yes"/>
      <point x="427" y="-6"/>
      <point x="508" y="51"/>
      <point x="525" y="161" type="curve" smooth="yes"/>
      <point x="532" y="203"/>
      <point x="538" y="237"/>
      <point x="538" y="249" type="curve" smooth="yes"/>
      <point x="538" y="335"/>
      <point x="460" y="365"/>
      <point x="429" y="370" type="curve"/>
      <point x="459" y="372"/>
      <point x="550" y="400"/>
      <point x="567" y="504" type="curve" smooth="yes"/>
      <point x="580" y="584"/>
      <point x="580" y="595"/>
      <point x="580" y="605" type="curve" smooth="yes"/>
      <point x="580" y="681"/>
      <point x="532" y="738"/>
      <point x="415" y="738" type="curve" smooth="yes"/>
      <point x="316" y="738"/>
      <point x="245" y="736"/>
      <point x="196" y="732" type="curve"/>
      <point x="193" y="716" type="line"/>
      <point x="405" y="716" type="line" smooth="yes"/>
      <point x="504" y="716"/>
      <point x="556" y="673"/>
      <point x="556" y="601" type="curve" smooth="yes"/>
      <point x="556" y="592"/>
      <point x="556" y="583"/>
      <point x="543" y="504" type="curve" smooth="yes"/>
      <point x="529" y="419"/>
      <point x="464" y="386"/>
      <point x="383" y="383" type="curve" smooth="yes"/>
      <point x="188" y="377" type="line"/>
      <point x="185" y="363" type="line"/>
      <point x="378" y="356" type="line" smooth="yes"/>
      <point x="439" y="354"/>
      <point x="514" y="328"/>
      <point x="514" y="247" type="curve" smooth="yes"/>
      <point x="514" y="238"/>
      <point x="509" y="203"/>
      <point x="501" y="161" type="curve" smooth="yes"/>
      <point x="479" y="45"/>
      <point x="392" y="16"/>
      <point x="303" y="16" type="curve" smooth="yes"/>
      <point x="51" y="16" type="line"/>
      <point x="48" y="0" type="line"/>
      <point x="106" y="-4"/>
      <point x="196" y="-6"/>
    </contour>
  </outline>
</glyph>
<glyph name="greater" format="2">
  <advance width="609"/>
  <unicode hex="003E"/>
  <note>
GF Latin Plus glyph
</note>
  <outline>
    <contour>
      <point x="146" y="200" type="line"/>
      <point x="582" y="336" type="line"/>
      <point x="586" y="360" type="line"/>
      <point x="192" y="496" type="line"/>
      <point x="189" y="476" type="line"/>
      <point x="564" y="349" type="line"/>
      <point x="149" y="220" type="line"/>
    </contour>
  </outline>
</glyph>
<glyph name="D" format="2">
  <advance width="663"/>
  <unicode hex="0044"/>
  <note>
GF Latin Plus glyph
</note>
  <anchor x="267" y="-150" name="bottom"/>
  <anchor x="419" y="810" name="top"/>
  <outline>
    <contour>
      <point x="80" y="0" type="line"/>
      <point x="339" y="0" type="line" smooth="yes"/>
      <point x="531" y="0"/>
      <point x="619" y="163"/>
      <point x="649" y="355" type="curve" smooth="yes"/>
      <point x="655" y="393"/>
      <point x="661" y="436"/>
      <point x="661" y="478" type="curve" smooth="yes"/>
      <point x="661" y="645"/>
      <point x="607" y="732"/>
      <point x="448" y="732" type="curve" smooth="yes"/>
      <point x="196" y="732" type="line"/>
    </contour>
    <contour>
      <point x="107" y="22" type="line"/>
      <point x="216" y="710" type="line"/>
      <point x="443" y="710" type="line" smooth="yes"/>
      <point x="596" y="710"/>
      <point x="637" y="628"/>
      <point x="637" y="481" type="curve" smooth="yes"/>
      <point x="637" y="447"/>
      <point x="633" y="407"/>
      <point x="626" y="364" type="curve" smooth="yes"/>
      <point x="598" y="183"/>
      <point x="519" y="22"/>
      <point x="338" y="22" type="curve" smooth="yes"/>
    </contour>
  </outline>
</glyph>
<glyph name="H" format="2">
  <advance width="646"/>
  <unicode hex="0048"/>
  <note>
GF Latin Plus glyph
</note>
  <anchor x="299" y="-150" name="bottom"/>
  <anchor x="451" y="810" name="top"/>
  <outline>
    <contour>
      <point x="80" y="0" type="line"/>
      <point x="104" y="0" type="line"/>
      <point x="158" y="343" type="line"/>
      <point x="596" y="343" type="line"/>
      <point x="542" y="0" type="line"/>
      <point x="566" y="0" type="line"/>
      <point x="682" y="732" type="line"/>
      <point x="658" y="732" type="line"/>
      <point x="600" y="365" type="line"/>
      <point x="162" y="365" type="line"/>
      <point x="220" y="732" type="line"/>
      <point x="196" y="732" type="line"/>
    </contour>
  </outline>
</glyph>
<glyph name="T" format="2">
  <advance width="602"/>
  <unicode hex="0054"/>
  <note>
GF Latin Plus glyph
</note>
  <anchor x="267" y="-150" name="bottom"/>
  <anchor x="419" y="810" name="top"/>
  <outline>
    <contour>
      <point x="284" y="0" type="line"/>
      <point x="308" y="0" type="line"/>
      <point x="420" y="710" type="line"/>
      <point x="674" y="710" type="line"/>
      <point x="678" y="732" type="line"/>
      <point x="146" y="732" type="line"/>
      <point x="142" y="710" type="line"/>
      <point x="396" y="710" type="line"/>
    </contour>
  </outline>
</glyph>
<glyph name="x" format="2">
  <advance width="506"/>
  <unicode hex="0078"/>
  <note>
GF Latin Plus glyph
</note>
  <anchor x="235" y="-150" name="bottom"/>
  <anchor x="361" y="650" name="top"/>
  <outline>
    <contour>
      <point x="436" y="0" type="line"/>
      <point x="461" y="0" type="line"/>
      <point x="305" y="271" type="line"/>
      <point x="154" y="531" type="line"/>
      <point x="129" y="531" type="line"/>
      <point x="289" y="254" type="line"/>
    </contour>
    <contour>
      <point x="45" y="0" type="line"/>
      <point x="73" y="0" type="line"/>
      <point x="294" y="250" type="line"/>
      <point x="287" y="274" type="line"/>
    </contour>
    <contour>
      <point x="305" y="259" type="line"/>
      <point x="545" y="531" type="line"/>
      <point x="517" y="531" type="line"/>
      <point x="298" y="282" type="line"/>
    </contour>
  </outline>
</glyph>
<glyph name="onesuperior" format="2">
  <advance width="421"/>
  <unicode hex="00B9"/>
  <note>
GF Latin Plus glyph
</note>
  <outline>
    <contour>
      <point x="262" y="355" type="line"/>
      <point x="284" y="355" type="line"/>
      <point x="362" y="847" type="line"/>
      <point x="341" y="847" type="line"/>
      <point x="207" y="800" type="line"/>
      <point x="204" y="785" type="line"/>
      <point x="336" y="824" type="line"/>
    </contour>
    <contour>
      <point x="129" y="355" type="line"/>
      <point x="417" y="355" type="line"/>
      <point x="420" y="375" type="line"/>
      <point x="132" y="375" type="line"/>
    </contour>
  </outline>
</glyph>
<glyph name="caron" format="2">
  <advance width="407"/>
  <unicode hex="02C7"/>
  <note>
GF Latin Plus glyph
</note>
  <outline>
    <contour>
      <point x="288" y="631" type="line"/>
      <point x="308" y="631" type="line"/>
      <point x="461" y="761" type="line"/>
      <point x="443" y="761" type="line"/>
      <point x="300" y="646" type="line"/>
      <point x="207" y="761" type="line"/>
      <point x="189" y="761" type="line"/>
    </contour>
  </outline>
</glyph>
<glyph name="ogonek" format="2">
  <advance width="258"/>
  <unicode hex="02DB"/>
  <note>
GF Latin Plus glyph
</note>
  <outline>
    <contour>
      <point x="141" y="-182" type="curve" smooth="yes"/>
      <point x="147" y="-182"/>
      <point x="154" y="-182"/>
      <point x="162" y="-181" type="curve"/>
      <point x="165" y="-167" type="line"/>
      <point x="160" y="-167" type="line" smooth="yes"/>
      <point x="98" y="-167"/>
      <point x="68" y="-144"/>
      <point x="68" y="-105" type="curve" smooth="yes"/>
      <point x="68" y="-75"/>
      <point x="98" y="-28"/>
      <point x="159" y="0" type="curve"/>
      <point x="147" y="0" type="line"/>
      <point x="73" y="-31"/>
      <point x="49" y="-79"/>
      <point x="49" y="-109" type="curve" smooth="yes"/>
      <point x="49" y="-155"/>
      <point x="86" y="-182"/>
    </contour>
  </outline>
</glyph>
<glyph name="dagger" format="2">
  <advance width="398"/>
  <unicode hex="2020"/>
  <note>
GF Latin Plus glyph
</note>
  <outline>
    <contour>
      <point x="180" y="-72" type="line"/>
      <point x="194" y="-72" type="line"/>
      <point x="291" y="507" type="line"/>
      <point x="452" y="512" type="line"/>
      <point x="454" y="526" type="line"/>
      <point x="295" y="530" type="line"/>
      <point x="328" y="770" type="line"/>
      <point x="314" y="770" type="line"/>
      <point x="271" y="530" type="line"/>
      <point x="110" y="526" type="line"/>
      <point x="108" y="512" type="line"/>
      <point x="267" y="507" type="line"/>
    </contour>
  </outline>
</glyph>
<glyph name="daggerdbl" format="2">
  <advance width="425"/>
  <unicode hex="2021"/>
  <note>
GF Latin Plus glyph
</note>
  <outline>
    <contour>
      <point x="181" y="-72" type="line"/>
      <point x="195" y="-72" type="line"/>
      <point x="241" y="189" type="line"/>
      <point x="402" y="194" type="line"/>
      <point x="404" y="208" type="line"/>
      <point x="245" y="212" type="line"/>
      <point x="291" y="507" type="line"/>
      <point x="452" y="512" type="line"/>
      <point x="454" y="526" type="line"/>
      <point x="295" y="530" type="line"/>
      <point x="328" y="770" type="line"/>
      <point x="314" y="770" type="line"/>
      <point x="271" y="530" type="line"/>
      <point x="110" y="526" type="line"/>
      <point x="108" y="512" type="line"/>
      <point x="267" y="507" type="line"/>
      <point x="221" y="212" type="line"/>
      <point x="60" y="208" type="line"/>
      <point x="58" y="194" type="line"/>
      <point x="217" y="189" type="line"/>
    </contour>
  </outline>
</glyph>
<glyph name="guilsinglright" format="2">
  <advance width="354"/>
  <unicode hex="203A"/>
  <note>
GF Latin Plus glyph
</note>
  <outline>
    <contour>
      <point x="80" y="70" type="line"/>
      <point x="318" y="273" type="line"/>
      <point x="141" y="481" type="line"/>
      <point x="124" y="468" type="line"/>
      <point x="288" y="274" type="line"/>
      <point x="67" y="86" type="line"/>
    </contour>
  </outline>
</glyph>
<glyph name="rupeeIndian" format="2">
  <advance width="609"/>
  <unicode hex="20B9"/>
  <note>
GF Latin Plus glyph
</note>
  <outline>
    <contour>
      <point x="418" y="0" type="line"/>
      <point x="442" y="0" type="line"/>
      <point x="332" y="323" type="line"/>
      <point x="436.829" y="338.974"/>
      <point x="529" y="444.26"/>
      <point x="529" y="572" type="curve" smooth="yes"/>
      <point x="529" y="713.714"/>
      <point x="449" y="732"/>
      <point x="380" y="732" type="curve" smooth="yes"/>
      <point x="178" y="732" type="line"/>
      <point x="174" y="710" type="line"/>
      <point x="396" y="710" type="line" smooth="yes"/>
      <point x="452" y="710"/>
      <point x="506" y="690.094"/>
      <point x="506" y="573" type="curve" smooth="yes"/>
      <point x="506" y="446.129"/>
      <point x="412" y="345"/>
      <point x="319" y="345" type="curve" smooth="yes"/>
      <point x="117" y="345" type="line"/>
      <point x="114" y="329" type="line"/>
      <point x="169" y="327"/>
      <point x="265" y="324"/>
      <point x="307" y="323" type="curve"/>
    </contour>
    <contour>
      <point x="144" y="518" type="line"/>
      <point x="661" y="518" type="line"/>
      <point x="665" y="540" type="line"/>
      <point x="148" y="540" type="line"/>
    </contour>
    <contour>
      <point x="319" y="710" type="line"/>
      <point x="691" y="710" type="line"/>
      <point x="695" y="732" type="line"/>
      <point x="323" y="732" type="line"/>
    </contour>
  </outline>
</glyph>
<glyph name="manat" format="2">
  <advance width="609"/>
  <unicode hex="20BC"/>
  <note>
GF Latin Plus glyph
</note>
  <outline>
    <contour>
      <point x="55" y="0" type="curve"/>
      <point x="79" y="0" type="line"/>
      <point x="121" y="199" type="line" smooth="yes"/>
      <point x="163" y="402"/>
      <point x="239" y="647"/>
      <point x="406" y="647" type="curve" smooth="yes"/>
      <point x="529" y="647"/>
      <point x="562" y="515"/>
      <point x="562" y="364" type="curve" smooth="yes"/>
      <point x="562" y="310"/>
      <point x="557" y="253"/>
      <point x="552" y="199" type="curve" smooth="yes"/>
      <point x="530" y="0" type="line"/>
      <point x="554" y="0" type="line"/>
      <point x="572" y="134"/>
      <point x="585" y="257"/>
      <point x="585" y="359" type="curve" smooth="yes"/>
      <point x="585" y="549"/>
      <point x="541" y="669"/>
      <point x="410" y="669" type="curve" smooth="yes"/>
      <point x="208" y="669"/>
      <point x="125" y="384"/>
    </contour>
    <contour>
      <point x="306" y="80" type="line"/>
      <point x="329" y="80" type="line"/>
      <point x="440" y="783" type="line"/>
      <point x="417" y="783" type="line"/>
    </contour>
  </outline>
</glyph>
<glyph name="minus" format="2">
  <advance width="609"/>
  <unicode hex="2212"/>
  <note>
GF Latin Plus glyph
</note>
  <outline>
    <contour>
      <point x="135" y="344" type="line"/>
      <point x="583" y="344" type="line"/>
      <point x="587" y="368" type="line"/>
      <point x="139" y="368" type="line"/>
    </contour>
  </outline>
</glyph>
<glyph name="N.salt.smcp" format="2">
  <advance width="588"/>
  <anchor x="285" y="-150" name="bottom"/>
  <anchor x="412" y="650" name="top"/>
  <outline>
    <contour>
      <point x="452" y="-5" type="curve" smooth="yes"/>
      <point x="489" y="-5"/>
      <point x="523" y="11"/>
      <point x="531" y="63" type="curve" smooth="yes"/>
      <point x="610" y="560" type="line"/>
      <point x="586" y="560" type="line"/>
      <point x="507" y="62" type="line" smooth="yes"/>
      <point x="501" y="26"/>
      <point x="479" y="17"/>
      <point x="457" y="17" type="curve" smooth="yes"/>
      <point x="431" y="17"/>
      <point x="419" y="27"/>
      <point x="415" y="49" type="curve" smooth="yes"/>
      <point x="313" y="518" type="line" smooth="yes"/>
      <point x="306" y="549"/>
      <point x="289" y="565"/>
      <point x="255" y="565" type="curve" smooth="yes"/>
      <point x="220" y="565"/>
      <point x="185" y="549"/>
      <point x="177" y="496" type="curve" smooth="yes"/>
      <point x="98" y="0" type="line"/>
      <point x="122" y="0" type="line"/>
      <point x="201" y="494" type="line" smooth="yes"/>
      <point x="206" y="533"/>
      <point x="227" y="544"/>
      <point x="254" y="544" type="curve" smooth="yes"/>
      <point x="274" y="544"/>
      <point x="286" y="532"/>
      <point x="290" y="511" type="curve" smooth="yes"/>
      <point x="393" y="42" type="line" smooth="yes"/>
      <point x="400" y="9"/>
      <point x="418" y="-5"/>
    </contour>
  </outline>
</glyph>
<glyph name="W.salt" format="2">
  <advance width="991"/>
  <anchor x="650" y="810" name="top"/>
  <outline>
    <contour>
      <point x="306" y="0" type="line"/>
      <point x="340" y="0" type="line"/>
      <point x="561" y="436" type="line"/>
      <point x="651" y="0" type="line"/>
      <point x="685" y="0" type="line"/>
      <point x="1059" y="732" type="line"/>
      <point x="1035" y="732" type="line"/>
      <point x="672" y="24" type="line"/>
      <point x="578" y="470" type="line"/>
      <point x="707" y="732" type="line"/>
      <point x="681" y="732" type="line"/>
      <point x="327" y="24" type="line"/>
      <point x="190" y="732" type="line"/>
      <point x="164" y="732" type="line"/>
    </contour>
  </outline>
</glyph>
<glyph name="W.salt.smcp" format="2">
  <advance width="829"/>
  <anchor x="541" y="650" name="top"/>
  <outline>
    <contour>
      <point x="257" y="0" type="line"/>
      <point x="290" y="0" type="line"/>
      <point x="464" y="329" type="line"/>
      <point x="539" y="0" type="line"/>
      <point x="572" y="0" type="line"/>
      <point x="868" y="560" type="line"/>
      <point x="844" y="560" type="line"/>
      <point x="559" y="23" type="line"/>
      <point x="481" y="361" type="line"/>
      <point x="582" y="560" type="line"/>
      <point x="556" y="560" type="line"/>
      <point x="278" y="23" type="line"/>
      <point x="164" y="560" type="line"/>
      <point x="139" y="560" type="line"/>
    </contour>
  </outline>
</glyph>
<glyph name="bullet.smcp" format="2">
  <advance width="296"/>
  <note>
GF Latin Plus glyph
</note>
  <outline>
    <contour>
      <point x="143" y="254" type="curve" smooth="yes"/>
      <point x="166" y="254" type="line" smooth="yes"/>
      <point x="182" y="254"/>
      <point x="196" y="260"/>
      <point x="199" y="278" type="curve" smooth="yes"/>
      <point x="203" y="304" type="line" smooth="yes"/>
      <point x="206" y="321"/>
      <point x="200" y="331"/>
      <point x="179" y="331" type="curve" smooth="yes"/>
      <point x="157" y="331" type="line" smooth="yes"/>
      <point x="139" y="331"/>
      <point x="128" y="320"/>
      <point x="125" y="304" type="curve" smooth="yes"/>
      <point x="121" y="278" type="line" smooth="yes"/>
      <point x="119" y="263"/>
      <point x="127" y="254"/>
    </contour>
  </outline>
</glyph>
<glyph name="circumflexcomb_acutecomb" format="2">
  <anchor x="-269" y="650" name="_top"/>
  <outline>
    <contour>
      <point x="-416" y="631" type="line"/>
      <point x="-398" y="631" type="line"/>
      <point x="-262" y="706" type="line"/>
      <point x="-162" y="631" type="line"/>
      <point x="-144" y="631" type="line"/>
      <point x="-250" y="721" type="line"/>
      <point x="-270" y="721" type="line"/>
    </contour>
    <contour>
      <point x="-183" y="701" type="line"/>
      <point x="-169" y="701" type="line"/>
      <point x="-15" y="834" type="line"/>
      <point x="-41" y="834" type="line"/>
    </contour>
  </outline>
</glyph>
<glyph name="circumflexcomb_hookabovecomb" format="2">
  <anchor x="-281" y="650" name="_top"/>
  <outline>
    <contour>
      <point x="-424" y="631" type="line"/>
      <point x="-406" y="631" type="line"/>
      <point x="-270" y="706" type="line"/>
      <point x="-170" y="631" type="line"/>
      <point x="-152" y="631" type="line"/>
      <point x="-258" y="721" type="line"/>
      <point x="-278" y="721" type="line"/>
    </contour>
    <contour>
      <point x="-178" y="680" type="line"/>
      <point x="-108.588" y="698.824"/>
      <point x="-84" y="735"/>
      <point x="-84" y="770" type="curve" smooth="yes"/>
      <point x="-84" y="800"/>
      <point x="-103" y="820"/>
      <point x="-144" y="820" type="curve" smooth="yes"/>
      <point x="-157" y="820"/>
      <point x="-170" y="819"/>
      <point x="-185" y="814" type="curve"/>
      <point x="-187" y="800" type="line"/>
      <point x="-175" y="804"/>
      <point x="-160" y="806"/>
      <point x="-148" y="806" type="curve" smooth="yes"/>
      <point x="-114" y="806"/>
      <point x="-100" y="793"/>
      <point x="-100" y="770" type="curve" smooth="yes"/>
      <point x="-100" y="743.333"/>
      <point x="-117.176" y="711.647"/>
      <point x="-176" y="694" type="curve"/>
    </contour>
  </outline>
</glyph>
<glyph name="circumflexcomb_tildecomb" format="2">
  <anchor x="-282.621" y="650" name="_top"/>
  <outline>
    <contour>
      <point x="-426" y="631" type="line"/>
      <point x="-408" y="631" type="line"/>
      <point x="-272" y="706" type="line"/>
      <point x="-172" y="631" type="line"/>
      <point x="-154" y="631" type="line"/>
      <point x="-259" y="721" type="line"/>
      <point x="-279" y="721" type="line"/>
    </contour>
    <contour>
      <point x="-422" y="771" type="curve"/>
      <point x="-408" y="771" type="line"/>
      <point x="-402" y="809"/>
      <point x="-370" y="824"/>
      <point x="-338" y="824" type="curve" smooth="yes"/>
      <point x="-277" y="824"/>
      <point x="-242" y="771"/>
      <point x="-183" y="771" type="curve" smooth="yes"/>
      <point x="-132" y="771"/>
      <point x="-98" y="800"/>
      <point x="-92" y="840" type="curve"/>
      <point x="-106" y="840" type="line"/>
      <point x="-111" y="805"/>
      <point x="-143" y="787"/>
      <point x="-179" y="787" type="curve" smooth="yes"/>
      <point x="-235" y="787"/>
      <point x="-271" y="840"/>
      <point x="-334" y="840" type="curve" smooth="yes"/>
      <point x="-369" y="840"/>
      <point x="-414" y="823"/>
    </contour>
  </outline>
</glyph>
<glyph name="dollar.smcp" format="2">
  <advance width="518"/>
  <note>
GF Latin Plus glyph
</note>
  <outline>
    <contour>
      <point x="233" y="-67" type="line"/>
      <point x="250" y="-67" type="line"/>
      <point x="260" y="-5" type="line"/>
      <point x="389" y="-5"/>
      <point x="442" y="31"/>
      <point x="456" y="121" type="curve" smooth="yes"/>
      <point x="466" y="183"/>
      <point x="465" y="193"/>
      <point x="465" y="203" type="curve" smooth="yes"/>
      <point x="465" y="263"/>
      <point x="428" y="293"/>
      <point x="348" y="293" type="curve" smooth="yes"/>
      <point x="258" y="293" type="line" smooth="yes"/>
      <point x="198" y="293"/>
      <point x="169" y="308"/>
      <point x="168" y="357" type="curve" smooth="yes"/>
      <point x="168" y="365"/>
      <point x="168" y="374"/>
      <point x="178" y="433" type="curve" smooth="yes"/>
      <point x="191" y="523"/>
      <point x="240" y="542"/>
      <point x="329" y="542" type="curve" smooth="yes"/>
      <point x="365" y="542"/>
      <point x="444" y="539"/>
      <point x="496" y="536" type="curve"/>
      <point x="498" y="552" type="line"/>
      <point x="466" y="557"/>
      <point x="394" y="563"/>
      <point x="350" y="564" type="curve"/>
      <point x="361" y="630" type="line"/>
      <point x="344" y="630" type="line"/>
      <point x="333" y="565" type="line"/>
      <point x="253" y="565"/>
      <point x="172" y="544"/>
      <point x="154" y="434" type="curve" smooth="yes"/>
      <point x="144" y="373"/>
      <point x="144" y="364"/>
      <point x="144" y="354" type="curve" smooth="yes"/>
      <point x="145" y="294"/>
      <point x="183" y="271"/>
      <point x="255" y="271" type="curve" smooth="yes"/>
      <point x="344" y="271" type="line" smooth="yes"/>
      <point x="412" y="271"/>
      <point x="441" y="249"/>
      <point x="442" y="199" type="curve" smooth="yes"/>
      <point x="442" y="191"/>
      <point x="440" y="181"/>
      <point x="432" y="122" type="curve" smooth="yes"/>
      <point x="419" y="33"/>
      <point x="354" y="16"/>
      <point x="269" y="16" type="curve" smooth="yes"/>
      <point x="206" y="16"/>
      <point x="133" y="18"/>
      <point x="89" y="21" type="curve"/>
      <point x="87" y="5" type="line"/>
      <point x="126" y="0"/>
      <point x="192" y="-4"/>
      <point x="243" y="-5" type="curve"/>
    </contour>
  </outline>
</glyph>
<glyph name="eight.smcp" format="2">
  <advance width="554"/>
  <note>
GF Latin Plus glyph
</note>
  <outline>
    <contour>
      <point x="228" y="0" type="curve" smooth="yes"/>
      <point x="338" y="0" type="line" smooth="yes"/>
      <point x="417" y="0"/>
      <point x="468" y="35"/>
      <point x="479" y="103" type="curve" smooth="yes"/>
      <point x="489" y="166" type="line" smooth="yes"/>
      <point x="494" y="196"/>
      <point x="495" y="206"/>
      <point x="495" y="219" type="curve" smooth="yes"/>
      <point x="495" y="252.029"/>
      <point x="471.967" y="280.006"/>
      <point x="431" y="287" type="curve"/>
      <point x="474.077" y="300.023"/>
      <point x="505.444" y="340.203"/>
      <point x="512" y="382" type="curve" smooth="yes"/>
      <point x="520" y="433" type="line" smooth="yes"/>
      <point x="524" y="458"/>
      <point x="524" y="471"/>
      <point x="524" y="481" type="curve" smooth="yes"/>
      <point x="524" y="539"/>
      <point x="491" y="564"/>
      <point x="428" y="564" type="curve" smooth="yes"/>
      <point x="317" y="564" type="line" smooth="yes"/>
      <point x="245" y="564"/>
      <point x="188" y="531"/>
      <point x="174" y="447" type="curve" smooth="yes"/>
      <point x="164" y="382" type="line" smooth="yes"/>
      <point x="163" y="375"/>
      <point x="163" y="369"/>
      <point x="163" y="363" type="curve" smooth="yes"/>
      <point x="163" y="329.84"/>
      <point x="182.155" y="300.931"/>
      <point x="220" y="284" type="curve"/>
      <point x="189.976" y="277.995"/>
      <point x="130.839" y="250.5"/>
      <point x="121" y="186" type="curve" smooth="yes"/>
      <point x="112" y="127" type="line" smooth="yes"/>
      <point x="108" y="99"/>
      <point x="107" y="89"/>
      <point x="107" y="81" type="curve" smooth="yes"/>
      <point x="107" y="29"/>
      <point x="149" y="0"/>
    </contour>
    <contour>
      <point x="232" y="20" type="line" smooth="yes"/>
      <point x="172" y="20"/>
      <point x="131" y="39"/>
      <point x="131" y="83" type="curve" smooth="yes"/>
      <point x="131" y="95"/>
      <point x="138" y="144"/>
      <point x="146" y="188" type="curve" smooth="yes"/>
      <point x="158" y="255"/>
      <point x="235" y="275"/>
      <point x="271" y="275" type="curve" smooth="yes"/>
      <point x="374" y="275" type="line" smooth="yes"/>
      <point x="442" y="275"/>
      <point x="470" y="259"/>
      <point x="470" y="214" type="curve" smooth="yes"/>
      <point x="470" y="206"/>
      <point x="469.524" y="198.083"/>
      <point x="455" y="102" type="curve" smooth="yes"/>
      <point x="446" y="47"/>
      <point x="407" y="20"/>
      <point x="339" y="20" type="curve" smooth="yes"/>
    </contour>
    <contour>
      <point x="275" y="296" type="line" smooth="yes"/>
      <point x="213" y="296"/>
      <point x="187" y="327"/>
      <point x="187" y="364" type="curve" smooth="yes"/>
      <point x="187" y="373"/>
      <point x="190" y="403"/>
      <point x="198" y="444" type="curve" smooth="yes"/>
      <point x="211" y="512"/>
      <point x="242" y="543"/>
      <point x="315" y="543" type="curve" smooth="yes"/>
      <point x="423" y="543" type="line" smooth="yes"/>
      <point x="474" y="543"/>
      <point x="500" y="524"/>
      <point x="500" y="476" type="curve" smooth="yes"/>
      <point x="500" y="467"/>
      <point x="498.853" y="456.23"/>
      <point x="487" y="378" type="curve" smooth="yes"/>
      <point x="482" y="343"/>
      <point x="447" y="296"/>
      <point x="378" y="296" type="curve" smooth="yes"/>
    </contour>
  </outline>
</glyph>
<glyph name="five.oldstyle" format="2">
  <advance width="589"/>
  <outline>
    <contour>
      <point x="291" y="-205" type="curve" smooth="yes"/>
      <point x="408" y="-205"/>
      <point x="513" y="-146"/>
      <point x="530" y="-35" type="curve" smooth="yes"/>
      <point x="548" y="74" type="line" smooth="yes"/>
      <point x="549" y="83"/>
      <point x="550" y="93"/>
      <point x="550" y="101" type="curve" smooth="yes"/>
      <point x="550" y="179"/>
      <point x="493" y="232"/>
      <point x="390" y="232" type="curve" smooth="yes"/>
      <point x="317" y="232" type="line" smooth="yes"/>
      <point x="239" y="232"/>
      <point x="189" y="195"/>
      <point x="171" y="163" type="curve"/>
      <point x="243" y="509" type="line"/>
      <point x="596" y="509" type="line"/>
      <point x="599" y="531" type="line"/>
      <point x="224" y="531" type="line"/>
      <point x="135" y="103" type="line"/>
      <point x="157" y="103" type="line"/>
      <point x="183" y="177"/>
      <point x="235" y="210"/>
      <point x="310" y="210" type="curve" smooth="yes"/>
      <point x="385" y="210" type="line" smooth="yes"/>
      <point x="478" y="210"/>
      <point x="526" y="168"/>
      <point x="526" y="99" type="curve" smooth="yes"/>
      <point x="526" y="91"/>
      <point x="525" y="82"/>
      <point x="523" y="72" type="curve" smooth="yes"/>
      <point x="507" y="-33" type="line" smooth="yes"/>
      <point x="491" y="-133"/>
      <point x="394" y="-183"/>
      <point x="292" y="-183" type="curve" smooth="yes"/>
      <point x="60" y="-183" type="line"/>
      <point x="57" y="-199" type="line"/>
      <point x="115" y="-205"/>
      <point x="201" y="-205"/>
    </contour>
  </outline>
</glyph>
<glyph name="four.oldstyle" format="2">
  <advance width="579"/>
  <outline>
    <contour>
      <point x="431" y="-190" type="line"/>
      <point x="455" y="-190" type="line"/>
      <point x="490" y="30" type="line"/>
      <point x="581" y="40" type="line"/>
      <point x="584" y="54" type="line"/>
      <point x="494" y="54" type="line"/>
      <point x="536" y="325" type="line"/>
      <point x="522" y="325" type="line"/>
      <point x="501" y="250" type="line"/>
      <point x="470" y="54" type="line"/>
      <point x="99" y="54" type="line"/>
      <point x="439" y="531" type="line"/>
      <point x="415" y="531" type="line"/>
      <point x="73" y="55" type="line"/>
      <point x="81" y="30" type="line"/>
      <point x="466" y="30" type="line"/>
    </contour>
  </outline>
</glyph>
<glyph name="four.tosf" format="2">
  <advance width="609"/>
  <outline>
    <contour>
      <point x="441" y="-190" type="line"/>
      <point x="465" y="-190" type="line"/>
      <point x="500" y="30" type="line"/>
      <point x="591" y="40" type="line"/>
      <point x="594" y="54" type="line"/>
      <point x="504" y="54" type="line"/>
      <point x="546" y="325" type="line"/>
      <point x="532" y="325" type="line"/>
      <point x="511" y="250" type="line"/>
      <point x="480" y="54" type="line"/>
      <point x="109" y="54" type="line"/>
      <point x="449" y="531" type="line"/>
      <point x="425" y="531" type="line"/>
      <point x="83" y="55" type="line"/>
      <point x="91" y="30" type="line"/>
      <point x="476" y="30" type="line"/>
    </contour>
  </outline>
</glyph>
<glyph name="hbar.smcp" format="2">
  <advance width="549"/>
  <note>
GF Latin Plus glyph
</note>
  <outline>
    <contour>
      <point x="80" y="406" type="line"/>
      <point x="598" y="406" type="line"/>
      <point x="601" y="424" type="line"/>
      <point x="83" y="424" type="line"/>
    </contour>
    <component base="h.smcp"/>
  </outline>
</glyph>
<glyph name="liraTurkish.smcp" format="2">
  <advance width="518"/>
  <note>
GF Latin Plus glyph
</note>
  <outline>
    <contour>
      <point x="120" y="0" type="line"/>
      <point x="144" y="0" type="line" smooth="yes"/>
      <point x="341" y="0"/>
      <point x="471" y="51"/>
      <point x="502" y="251" type="curve"/>
      <point x="479" y="251" type="line"/>
      <point x="449" y="65"/>
      <point x="328" y="21"/>
      <point x="147" y="21" type="curve"/>
      <point x="233" y="560" type="line"/>
      <point x="209" y="560" type="line"/>
    </contour>
    <contour>
      <point x="50" y="187" type="line"/>
      <point x="441" y="363" type="line"/>
      <point x="445" y="383" type="line"/>
      <point x="53" y="207" type="line"/>
    </contour>
    <contour>
      <point x="69" y="309" type="line"/>
      <point x="461" y="485" type="line"/>
      <point x="464" y="505" type="line"/>
      <point x="72" y="329" type="line"/>
    </contour>
  </outline>
</glyph>
<glyph name="lslash.smcp" format="2">
  <advance width="444"/>
  <note>
GF Latin Plus glyph
</note>
  <outline>
    <contour>
      <point x="49" y="246" type="line"/>
      <point x="124" y="274" type="line"/>
      <point x="141" y="279" type="line"/>
      <point x="266" y="327" type="line"/>
      <point x="269" y="344" type="line"/>
      <point x="144" y="296" type="line"/>
      <point x="126" y="292" type="line"/>
      <point x="51" y="264" type="line"/>
    </contour>
    <component base="l.smcp"/>
  </outline>
</glyph>
<glyph name="manat.smcp" format="2">
  <advance width="518"/>
  <note>
GF Latin Plus glyph
</note>
  <outline>
    <contour>
      <point x="56" y="0" type="curve"/>
      <point x="79" y="0" type="line"/>
      <point x="112" y="155" type="line" smooth="yes"/>
      <point x="144" y="308"/>
      <point x="203" y="492"/>
      <point x="336" y="492" type="curve" smooth="yes"/>
      <point x="434" y="492"/>
      <point x="461" y="393"/>
      <point x="462" y="280" type="curve" smooth="yes"/>
      <point x="463" y="239"/>
      <point x="459" y="196"/>
      <point x="455" y="155" type="curve" smooth="yes"/>
      <point x="439" y="0" type="line"/>
      <point x="462" y="0" type="line"/>
      <point x="476" y="103"/>
      <point x="485" y="197"/>
      <point x="485" y="275" type="curve" smooth="yes"/>
      <point x="483" y="421"/>
      <point x="447" y="513"/>
      <point x="340" y="513" type="curve" smooth="yes"/>
      <point x="175" y="513"/>
      <point x="110" y="294"/>
    </contour>
    <contour>
      <point x="259" y="61" type="line"/>
      <point x="279" y="61" type="line"/>
      <point x="364" y="599" type="line"/>
      <point x="344" y="599" type="line"/>
    </contour>
  </outline>
</glyph>
<glyph name="one.tnum" format="2">
  <advance width="609"/>
  <outline>
    <contour>
      <point x="302" y="0" type="line"/>
      <point x="326" y="0" type="line"/>
      <point x="443" y="740" type="line"/>
      <point x="419" y="740" type="line"/>
      <point x="220" y="668" type="line"/>
      <point x="217" y="652" type="line"/>
      <point x="415" y="713" type="line"/>
    </contour>
    <contour>
      <point x="104" y="0" type="line"/>
      <point x="525" y="0" type="line"/>
      <point x="528" y="22" type="line"/>
      <point x="107" y="22" type="line"/>
    </contour>
  </outline>
</glyph>
<glyph name="ordfeminine.smcp" format="2">
  <advance width="417"/>
  <note>
GF Latin Plus glyph
</note>
  <outline>
    <contour>
      <point x="80" y="280" type="line"/>
      <point x="102" y="280" type="line"/>
      <point x="177" y="418" type="line"/>
      <point x="371" y="418" type="line"/>
      <point x="402" y="280" type="line"/>
      <point x="425" y="280" type="line"/>
      <point x="333" y="693" type="line"/>
      <point x="304" y="693" type="line"/>
    </contour>
    <contour>
      <point x="49" y="186" type="line"/>
      <point x="426" y="186" type="line"/>
      <point x="430" y="206" type="line"/>
      <point x="53" y="206" type="line"/>
    </contour>
    <contour>
      <point x="186" y="437" type="line"/>
      <point x="315" y="673" type="line"/>
      <point x="366" y="437" type="line"/>
    </contour>
  </outline>
</glyph>
<glyph name="r.salt" format="2">
  <advance width="384"/>
  <anchor x="79" y="-150" name="bottom"/>
  <anchor x="352" y="650" name="top"/>
  <outline>
    <contour>
      <point x="91" y="0" type="line"/>
      <point x="115" y="0" type="line"/>
      <point x="190" y="476" type="line"/>
      <point x="242" y="499"/>
      <point x="302" y="513"/>
      <point x="374" y="513" type="curve" smooth="yes"/>
      <point x="395" y="513"/>
      <point x="413" y="510"/>
      <point x="427" y="507" type="curve"/>
      <point x="431" y="531" type="line"/>
      <point x="418" y="535"/>
      <point x="399" y="537"/>
      <point x="378" y="537" type="curve" smooth="yes"/>
      <point x="303" y="537"/>
      <point x="235" y="518"/>
      <point x="168" y="487" type="curve"/>
    </contour>
  </outline>
</glyph>
<glyph name="s.superior" format="2">
  <advance width="378"/>
  <note>
GF Latin Plus glyph
</note>
  <anchor x="208" y="169" name="bottom"/>
  <anchor x="301" y="759" name="top"/>
  <outline>
    <contour>
      <point x="253" y="276" type="curve" smooth="yes"/>
      <point x="329" y="276"/>
      <point x="380" y="298"/>
      <point x="390" y="360" type="curve" smooth="yes"/>
      <point x="396" y="396" type="line" smooth="yes"/>
      <point x="397" y="402"/>
      <point x="397" y="407"/>
      <point x="397" y="413" type="curve" smooth="yes"/>
      <point x="397" y="461"/>
      <point x="361" y="485"/>
      <point x="311" y="485" type="curve" smooth="yes"/>
      <point x="227" y="485" type="line" smooth="yes"/>
      <point x="173" y="485"/>
      <point x="151" y="495"/>
      <point x="151" y="523" type="curve" smooth="yes"/>
      <point x="151" y="533"/>
      <point x="152" y="550"/>
      <point x="159" y="585" type="curve" smooth="yes"/>
      <point x="169" y="634"/>
      <point x="195" y="657"/>
      <point x="261" y="657" type="curve" smooth="yes"/>
      <point x="410" y="657" type="line"/>
      <point x="413" y="671" type="line"/>
      <point x="378" y="674"/>
      <point x="301" y="676"/>
      <point x="265" y="676" type="curve" smooth="yes"/>
      <point x="181" y="676"/>
      <point x="148" y="641"/>
      <point x="138" y="586" type="curve" smooth="yes"/>
      <point x="132" y="552" type="line" smooth="yes"/>
      <point x="130" y="541"/>
      <point x="129" y="531"/>
      <point x="129" y="522" type="curve" smooth="yes"/>
      <point x="129" y="481"/>
      <point x="159" y="464"/>
      <point x="225" y="464" type="curve" smooth="yes"/>
      <point x="309" y="464" type="line" smooth="yes"/>
      <point x="354" y="464"/>
      <point x="375" y="448"/>
      <point x="375" y="412" type="curve" smooth="yes"/>
      <point x="375" y="406"/>
      <point x="374" y="395"/>
      <point x="369" y="364" type="curve" smooth="yes"/>
      <point x="361" y="312"/>
      <point x="319" y="295"/>
      <point x="257" y="295" type="curve" smooth="yes"/>
      <point x="96" y="295" type="line"/>
      <point x="94" y="281" type="line"/>
      <point x="119" y="278"/>
      <point x="219" y="276"/>
    </contour>
  </outline>
</glyph>
<glyph name="t_y" format="2">
  <advance width="908.777"/>
  <outline>
    <contour>
      <point x="463" y="-237" type="line"/>
      <point x="540" y="-222"/>
      <point x="607" y="-164"/>
      <point x="686" y="1" type="curve" smooth="yes"/>
      <point x="899" y="446" type="line" smooth="yes"/>
      <point x="916" y="481"/>
      <point x="920" y="509"/>
      <point x="920" y="539" type="curve"/>
      <point x="904" y="539" type="line"/>
      <point x="901" y="509"/>
      <point x="886" y="476"/>
      <point x="876" y="454" type="curve" smooth="yes"/>
      <point x="671" y="25" type="line"/>
      <point x="628" y="28"/>
      <point x="591" y="39"/>
      <point x="576" y="116" type="curve" smooth="yes"/>
      <point x="512" y="441" type="line" smooth="yes"/>
      <point x="499" y="507"/>
      <point x="463" y="531"/>
      <point x="409" y="531" type="curve" smooth="yes"/>
      <point x="220" y="531" type="line"/>
      <point x="217" y="509" type="line"/>
      <point x="403" y="509" type="line" smooth="yes"/>
      <point x="452" y="509"/>
      <point x="478" y="491"/>
      <point x="488" y="439" type="curve" smooth="yes"/>
      <point x="553" y="110" type="line" smooth="yes"/>
      <point x="572" y="12"/>
      <point x="620" y="5"/>
      <point x="659" y="0" type="curve"/>
      <point x="591" y="-143"/>
      <point x="515" y="-202"/>
      <point x="463" y="-215" type="curve"/>
    </contour>
    <component base="t"/>
  </outline>
</glyph>
<glyph name="u.salt" format="2">
  <advance width="582"/>
  <anchor x="256" y="-150" name="bottom"/>
  <anchor x="331" y="0" name="ogonek"/>
  <anchor x="393" y="650" name="top"/>
  <outline>
    <contour>
      <point x="260" y="-6" type="curve" smooth="yes"/>
      <point x="362" y="-6"/>
      <point x="425" y="19"/>
      <point x="503" y="48" type="curve"/>
      <point x="579" y="531" type="line"/>
      <point x="555" y="531" type="line"/>
      <point x="480" y="57" type="line"/>
      <point x="386" y="24"/>
      <point x="329" y="16"/>
      <point x="267" y="16" type="curve" smooth="yes"/>
      <point x="184" y="16"/>
      <point x="138" y="52"/>
      <point x="138" y="126" type="curve" smooth="yes"/>
      <point x="138" y="137"/>
      <point x="139" y="149"/>
      <point x="140" y="161" type="curve" smooth="yes"/>
      <point x="199" y="531" type="line"/>
      <point x="175" y="531" type="line"/>
      <point x="116" y="161" type="line" smooth="yes"/>
      <point x="114" y="147"/>
      <point x="113" y="134"/>
      <point x="113" y="122" type="curve" smooth="yes"/>
      <point x="113" y="40"/>
      <point x="163" y="-6"/>
    </contour>
  </outline>
</glyph>
<glyph name="y.smcp" format="2">
  <advance width="504"/>
  <note>
GF Latin Plus glyph
</note>
  <anchor x="220" y="-150" name="bottom"/>
  <anchor x="343" y="650" name="top"/>
  <outline>
    <contour>
      <point x="232" y="0" type="line"/>
      <point x="256" y="0" type="line"/>
      <point x="287" y="197" type="line"/>
      <point x="557" y="560" type="line"/>
      <point x="529" y="560" type="line"/>
      <point x="278" y="226" type="line"/>
      <point x="151" y="560" type="line"/>
      <point x="125" y="560" type="line"/>
      <point x="263" y="197" type="line"/>
    </contour>
  </outline>
</glyph>
<glyph name="y.superior" format="2">
  <advance width="409"/>
  <note>
GF Latin Plus glyph
</note>
  <anchor x="346" y="169" name="bottom"/>
  <anchor x="301" y="759" name="top"/>
  <outline>
    <contour>
      <point x="117" y="105" type="line"/>
      <point x="177" y="116"/>
      <point x="228" y="159"/>
      <point x="288" y="281" type="curve" smooth="yes"/>
      <point x="445" y="604" type="line" smooth="yes"/>
      <point x="458" y="632"/>
      <point x="463" y="654"/>
      <point x="463" y="678" type="curve"/>
      <point x="445" y="678" type="line"/>
      <point x="443" y="655"/>
      <point x="432" y="630"/>
      <point x="424" y="613" type="curve" smooth="yes"/>
      <point x="274" y="302" type="line"/>
      <point x="242" y="304"/>
      <point x="215" y="312"/>
      <point x="204" y="367" type="curve" smooth="yes"/>
      <point x="143" y="672" type="line"/>
      <point x="121" y="672" type="line"/>
      <point x="183" y="362" type="line" smooth="yes"/>
      <point x="197" y="290"/>
      <point x="233" y="284"/>
      <point x="264" y="280" type="curve"/>
      <point x="214" y="176"/>
      <point x="157" y="134"/>
      <point x="117" y="124" type="curve"/>
    </contour>
  </outline>
</glyph>
